<!-- src\teste.svg -->
<svg xmlns="http://www.w3.org/2000/svg" viewBox="0 0 160 160" role="img" aria-label="Books Timeline logo">
  <defs>
    <linearGradient id="arc" x1="0" y1="0" x2="1" y2="0">
      <stop offset="0" stop-color="#20324a" />
      <stop offset="1" stop-color="#d9bf8a" />
    </linearGradient>
  </defs>
  <rect width="160" height="160" rx="24" fill="#0f1a2a"/>
  <path d="M26 114a54 54 0 0 1 108 0" fill="none" stroke="url(#arc)" stroke-width="4" stroke-linecap="round"/>
  <line x1="36" y1="114" x2="124" y2="114" stroke="#20324a" stroke-width="4" stroke-linecap="round"/>
  <circle cx="36" cy="114" r="4.5" fill="#20324a"/>
  <circle cx="59" cy="114" r="4.5" fill="#d7c29a"/>
  <circle cx="82" cy="114" r="4.5" fill="#d9bf8a"/>
  <circle cx="124" cy="114" r="4.5" fill="#20324a"/>
  <path d="M80 52c-13-11-26-12-38-8v44c12-4 25-3 38 8z" fill="#2a3f5b"/>
  <path d="M80 52c13-11 26-12 38-8v44c-12-4-25-3-38 8z" fill="#d9bf8a"/>
  <path d="M48 50c-4 0-7 3-7 7v34c0 4 3 7 7 7" fill="none" stroke="#d7c29a" stroke-width="3" stroke-linecap="round"/>
</svg>
